<svg width="72" height="73" viewBox="0 0 72 73" fill="none" xmlns="http://www.w3.org/2000/svg">
<path d="M38.6802 72.0168C37.3263 71.4889 36.8233 70.4928 36.8424 69.0548C36.8928 65.2851 36.8574 61.5142 36.8604 57.7439C36.862 55.8908 37.76 55 39.6252 54.9999C49.4352 54.9985 59.2452 55.015 69.0551 54.9817C70.497 54.9768 71.4904 55.4591 71.9996 56.8295C71.9996 61.2825 71.9996 65.7355 71.9996 70.1885C71.6719 71.0795 71.0627 71.6889 70.1719 72.0166C59.6749 72.0168 49.1776 72.0168 38.6802 72.0168ZM54.4369 69.901C54.4369 69.9031 54.4369 69.9052 54.4369 69.9073C59.331 69.9073 64.2251 69.9007 69.1192 69.9167C69.6608 69.9184 69.9094 69.8253 69.9048 69.1958C69.8768 65.4015 69.88 61.607 69.9029 57.8127C69.9062 57.2508 69.7367 57.0973 69.1838 57.0982C59.3722 57.1149 49.5606 57.1176 39.749 57.1031C39.1438 57.1022 38.9489 57.2558 38.954 57.8884C38.9843 61.6123 38.9867 65.3367 38.9529 69.0606C38.9466 69.7531 39.1653 69.9177 39.8252 69.9142C44.6955 69.8896 49.5662 69.901 54.4369 69.901Z" fill="#F8780F"/>
<path d="M71.9998 33.6269C71.4073 34.9854 70.3482 35.3829 68.9098 35.3771C59.2378 35.338 49.5658 35.3569 39.8937 35.3565C39.6595 35.3565 39.425 35.3606 39.1913 35.3486C37.8376 35.2794 36.8817 34.3744 36.8727 33.0223C36.8456 28.9232 36.8489 24.8237 36.8699 20.7246C36.8766 19.4229 37.7302 18.5263 39.0151 18.3632C39.2924 18.328 39.5757 18.3321 39.8562 18.3321C49.5516 18.3306 59.2471 18.3454 68.9425 18.315C70.3834 18.3104 71.4432 18.7411 71.9998 20.1274C71.9998 24.627 71.9998 29.1269 71.9998 33.6269ZM39.0084 33.1848C39.3174 33.2013 39.5908 33.2285 39.8645 33.2286C49.6278 33.236 59.3913 33.2366 69.1547 33.2573C69.7405 33.2586 69.9069 33.0805 69.9032 32.499C69.8794 28.7052 69.8914 24.9112 69.8895 21.1173C69.8895 20.9341 69.8687 20.751 69.8548 20.5202C69.5283 20.4966 69.2287 20.4559 68.929 20.4557C59.1889 20.4483 49.4489 20.4492 39.7088 20.4304C39.1174 20.4293 38.9543 20.6265 38.9576 21.2013C38.9791 24.9716 38.9682 28.7422 38.9703 32.5127C38.9703 32.7173 38.9929 32.9221 39.0084 33.1848Z" fill="#F8780F"/>
<path d="M10.5624 72.0168C10.103 71.6601 9.68856 71.2751 9.93929 70.6126C10.1835 69.9672 10.7306 69.9037 11.3254 69.904C18.2806 69.9075 25.2359 69.8963 32.191 69.9153C32.8451 69.9171 33.0719 69.7612 33.0654 69.065C33.0311 65.341 33.0342 61.6162 33.0638 57.8921C33.0688 57.2646 32.8832 57.1021 32.2725 57.103C22.4602 57.1179 12.6479 57.1151 2.83577 57.0984C2.28517 57.0975 2.11156 57.247 2.11491 57.8113C2.13815 61.6058 2.13674 65.4006 2.11596 69.1953C2.11297 69.7438 2.25911 69.9463 2.8282 69.9192C3.7394 69.8755 4.65431 69.9153 5.56762 69.9047C6.15942 69.8979 6.7065 69.9604 6.95547 70.6085C7.21079 71.2729 6.7926 71.6534 6.34448 72.017C4.84482 72.017 3.34516 72.017 1.84568 72.017C0.480724 71.5019 -0.0191617 70.5078 0.000559011 69.0666C0.052326 65.2978 0.0167582 61.5276 0.018519 57.7581C0.0193994 55.8875 0.899966 55.0004 2.76217 55.0002C12.6403 54.9987 22.5185 54.9986 32.3965 55.0001C34.2601 55.0002 35.1556 55.8912 35.1572 57.7474C35.1602 61.5169 35.1248 65.2869 35.1752 69.0559C35.1944 70.4935 34.691 71.4893 33.3374 72.017C25.746 72.0168 18.1542 72.0168 10.5624 72.0168Z" fill="#F8780F"/>
<path d="M71.9999 15.2053C71.4911 16.5746 70.4994 17.0738 69.0571 17.0534C65.3137 17.0004 61.5689 17.0381 57.8246 17.0344C56.0559 17.0326 55.1373 16.1212 55.1351 14.3606C55.1306 10.4751 55.1306 6.58942 55.1351 2.7039C55.1373 0.93748 56.0548 0.020993 57.8189 0.0192322C61.5632 0.0155345 65.3079 0.052511 69.0515 0.000567888C70.492 -0.019329 71.4854 0.481438 72.0001 1.84604C71.9999 6.29924 71.9999 10.7523 71.9999 15.2053ZM69.891 8.56413C69.891 6.64382 69.8759 4.72316 69.9011 2.80321C69.9078 2.28571 69.7519 2.11474 69.2242 2.11738C65.4547 2.1364 61.6851 2.13604 57.9156 2.11756C57.3928 2.11492 57.2308 2.27884 57.2333 2.80004C57.2511 6.61724 57.2511 10.4346 57.2333 14.252C57.2308 14.7712 57.3879 14.9385 57.9128 14.9359C61.6823 14.9172 65.4519 14.9172 69.2214 14.9359C69.7438 14.9385 69.9086 14.7778 69.9014 14.2548C69.8752 12.3583 69.891 10.4612 69.891 8.56413Z" fill="#F8780F"/>
<path d="M71.9998 51.9077C71.4434 53.2936 70.385 53.74 68.9433 53.7206C65.3148 53.6715 61.6852 53.7055 58.056 53.7039C56.001 53.703 55.1343 52.8462 55.1338 50.8172C55.1329 47.0233 55.1319 43.2293 55.1343 39.4354C55.1356 37.5626 56.0089 36.6827 57.8827 36.6799C61.5587 36.6745 65.2354 36.7201 68.9103 36.6574C70.3501 36.6327 71.4075 37.0502 71.9998 38.4081C71.9998 42.908 71.9998 47.4078 71.9998 51.9077ZM69.8909 45.1799C69.8909 43.2836 69.8774 41.387 69.9001 39.4908C69.9059 39.0001 69.8052 38.7753 69.2503 38.7783C65.4585 38.798 61.6667 38.7948 57.8748 38.7809C57.3864 38.7791 57.2316 38.9431 57.2337 39.4326C57.2503 43.2721 57.2497 47.1119 57.2342 50.9514C57.2323 51.4462 57.4066 51.6031 57.887 51.6015C61.6788 51.5892 65.4708 51.5886 69.2627 51.6019C69.7575 51.6036 69.905 51.4205 69.8997 50.9393C69.8784 49.0197 69.8909 47.0997 69.8909 45.1799Z" fill="#F8780F"/>
<path d="M35.9332 17.0356C31.0149 17.0356 26.0969 17.0372 21.1787 17.0349C19.3198 17.034 18.4391 16.1443 18.438 14.2692C18.4357 10.4274 18.4352 6.58568 18.4384 2.74383C18.44 0.924415 19.342 0.0191969 21.1544 0.0190208C31.0611 0.01726 40.9676 0.01726 50.8743 0.0190208C52.6539 0.0193729 53.5748 0.925823 53.5769 2.68432C53.5815 6.573 53.581 10.4615 53.5771 14.3502C53.5753 16.126 52.6705 17.0331 50.8986 17.0343C45.9099 17.0377 40.9216 17.0356 35.9332 17.0356ZM36.0105 14.926C40.9047 14.926 45.799 14.9233 50.6933 14.9302C51.1528 14.9309 51.4872 14.9397 51.4825 14.2886C51.4548 10.4474 51.4619 6.60593 51.4773 2.76443C51.4793 2.27423 51.322 2.1184 50.8311 2.11911C40.9723 2.13284 31.1135 2.13548 21.2548 2.12597C20.7177 2.12544 20.5291 2.2656 20.533 2.83891C20.5589 6.6098 20.5603 10.3812 20.5325 14.1521C20.5279 14.7777 20.7135 14.9418 21.3275 14.939C26.2219 14.9156 31.1162 14.926 36.0105 14.926Z" fill="#F8780F"/>
<path d="M17.5701 35.3565C12.6762 35.3565 7.78209 35.3579 2.88817 35.356C0.857283 35.3553 0.0189743 34.5226 0.0184461 32.5132C0.0175657 28.6955 0.016157 24.8777 0.0191504 21.06C0.020559 19.2543 0.931236 18.3338 2.7429 18.3329C12.648 18.3285 22.5529 18.328 32.458 18.3334C34.2218 18.3345 35.1545 19.2712 35.1568 21.0204C35.1619 24.9084 35.1619 28.7964 35.1568 32.6843C35.1545 34.4499 34.2488 35.3519 32.4626 35.3544C27.4984 35.3607 22.5343 35.3565 17.5701 35.3565ZM2.15234 33.1816C2.43776 33.1999 2.66596 33.2274 2.89416 33.2275C12.7044 33.2353 22.5146 33.2377 32.3247 33.2543C32.8486 33.2552 33.0657 33.136 33.0618 32.5521C33.0368 28.7583 33.0402 24.9644 33.059 21.1706C33.0616 20.6309 32.9134 20.4303 32.3485 20.4314C22.5383 20.4495 12.7281 20.4502 2.91793 20.4592C2.66895 20.4594 2.41998 20.5096 2.15216 20.5385C2.15234 24.758 2.15234 28.9224 2.15234 33.1816Z" fill="#F8780F"/>
<path d="M51.4691 51.5292C51.4691 49.3381 51.4691 47.2547 51.4691 45.1712C51.4691 43.2965 51.4497 41.4213 51.4807 39.5471C51.4902 38.9775 51.3393 38.7542 50.7391 38.7766C49.6395 38.8176 48.5371 38.7954 47.436 38.7836C46.8169 38.7769 46.3304 38.5501 46.207 37.8717C46.1015 37.292 46.5076 36.727 47.1372 36.7126C48.635 36.6784 50.1376 36.6524 51.632 36.7358C52.6983 36.7953 53.5521 37.7752 53.5595 38.9044C53.587 43.0989 53.5886 47.294 53.5563 51.4884C53.5477 52.6094 52.7117 53.455 51.5975 53.6421C51.2994 53.6921 50.9918 53.7017 50.6884 53.7018C40.8949 53.7048 31.1014 53.705 21.308 53.7036C19.3075 53.7032 18.4381 52.8318 18.4375 50.8348C18.4365 47.0383 18.4358 43.2419 18.4379 39.4455C18.4389 37.5627 19.3054 36.6812 21.1775 36.68C28.0657 36.6758 34.954 36.677 41.8422 36.6828C42.1421 36.683 42.536 36.6427 42.7198 36.8071C42.999 37.0572 43.2885 37.4734 43.2813 37.8131C43.275 38.1131 42.921 38.4871 42.6235 38.6743C42.3771 38.8292 41.9894 38.785 41.6642 38.7854C34.9167 38.7935 28.1692 38.8053 21.4217 38.7836C20.7176 38.7813 20.5221 38.9643 20.5301 39.6839C20.5704 43.3861 20.5607 47.0892 20.5367 50.7918C20.5329 51.3898 20.6778 51.6083 21.3154 51.6069C30.9916 51.5855 40.6678 51.5882 50.344 51.5824C50.6912 51.5819 51.0382 51.5503 51.4691 51.5292Z" fill="#F8780F"/>
<path d="M0.0185242 45.1641C0.0185242 43.1971 0.0123614 41.2301 0.020285 39.2632C0.0269759 37.6172 0.933427 36.6889 2.58363 36.6833C6.4931 36.6695 10.4027 36.6695 14.3124 36.6833C15.9584 36.6891 16.8785 37.6216 16.8819 39.2605C16.8898 43.2179 16.8909 47.1753 16.8812 51.1326C16.8773 52.7154 15.9381 53.6879 14.3499 53.6967C10.417 53.7181 6.48394 53.718 2.55106 53.6968C0.959662 53.688 0.0287367 52.7185 0.0208132 51.1352C0.0109528 49.1449 0.0185242 47.1545 0.0185242 45.1641ZM2.12724 45.2306C2.12724 47.127 2.14396 49.0237 2.1165 50.9197C2.10875 51.452 2.29698 51.6047 2.80637 51.6027C6.5748 51.5881 10.3434 51.5871 14.1118 51.6034C14.6432 51.6057 14.7871 51.411 14.7848 50.9007C14.7677 47.0846 14.766 43.2682 14.7862 39.4523C14.789 38.9131 14.5989 38.7777 14.0926 38.7798C10.3242 38.7959 6.5556 38.7971 2.78718 38.7788C2.2556 38.7761 2.10998 38.9573 2.11685 39.4716C2.14273 41.3909 2.12724 43.3109 2.12724 45.2306Z" fill="#F8780F"/>
<path d="M8.47872 17.0355C6.53482 17.0356 4.59091 17.04 2.64683 17.0342C0.959827 17.0291 0.0294295 16.1088 0.0195691 14.4408C0.0134063 13.41 0.0146389 12.3793 0.0195691 11.3485C0.023795 10.4491 0.384051 9.97438 1.05632 9.9647C1.75288 9.95466 2.12282 10.4415 2.12634 11.3855C2.13004 12.346 2.15434 13.3075 2.11666 14.2665C2.09553 14.8063 2.30172 14.9375 2.80918 14.9352C6.57989 14.918 10.3508 14.9197 14.1215 14.9336C14.5907 14.9354 14.7871 14.8174 14.7848 14.3061C14.7675 10.4642 14.7661 6.6222 14.786 2.78035C14.7888 2.23363 14.5811 2.11654 14.0826 2.11883C10.3353 2.13503 6.58781 2.13749 2.84069 2.11671C2.29432 2.11372 2.09025 2.25652 2.11543 2.82772C2.15857 3.80971 2.13321 4.79504 2.12546 5.77897C2.11877 6.61428 1.74021 7.08705 1.09083 7.09762C0.433001 7.10836 0.0285491 6.63664 0.0213299 5.81471C0.0114695 4.69027 0.00425028 3.56549 0.0230907 2.4414C0.0466851 1.00055 1.01987 0.0278983 2.47322 0.0231441C6.4547 0.0101144 10.4364 0.00993828 14.4178 0.0231441C15.9055 0.0280743 16.8741 1.0032 16.8792 2.50444C16.8931 6.51039 16.8919 10.5163 16.8803 14.5221C16.8759 16.0699 15.9177 17.023 14.3809 17.0323C12.4135 17.0443 10.446 17.0353 8.47872 17.0355Z" fill="#F8780F"/>
</svg>
