<svg width="72" height="72" viewBox="0 0 72 72" fill="none" xmlns="http://www.w3.org/2000/svg">
<path d="M25.2006 47.9995C25.2006 46.796 25.1898 45.6764 25.204 44.5572C25.2154 43.6639 25.6564 43.2001 26.5359 43.1989C32.8344 43.1905 39.133 43.1911 45.4313 43.1981C46.3226 43.1991 46.7772 43.6513 46.7908 44.53C46.8081 45.6491 46.795 46.7687 46.795 47.9406C49.47 47.9406 52.2776 47.9406 55.1878 47.9406C55.1878 47.0191 55.2132 46.0796 55.1667 45.1434C55.1573 44.9526 54.9027 44.7443 54.7193 44.5961C53.0868 43.2772 51.4404 41.9753 49.8075 40.6573C49.1013 40.0872 49.002 39.3402 49.5267 38.7804C49.9599 38.3183 50.5958 38.2432 51.151 38.68C53.1539 40.2557 55.1515 41.8393 57.1099 43.4692C57.3875 43.7002 57.5501 44.1983 57.5715 44.5834C57.6326 45.6782 57.593 46.7787 57.593 47.946C57.8319 47.9626 58.0456 47.9901 58.2591 47.9905C60.7585 47.9935 63.258 47.9973 65.7574 47.9909C67.9817 47.9851 69.6054 46.4385 69.588 44.3563C69.571 42.3124 67.9513 40.8037 65.759 40.7961C64.3594 40.7912 62.9596 40.7983 61.56 40.7941C60.3907 40.7906 59.994 40.3923 59.9938 39.212C59.9922 28.8661 59.9928 18.5202 59.9928 8.17435C59.9928 7.87993 59.9928 7.58552 59.9928 7.24964C59.1924 7.24964 58.4522 7.24964 57.5934 7.24964C57.5934 7.52042 57.5934 7.80743 57.5934 8.09444C57.5934 17.1409 57.5934 26.1873 57.5934 35.2336C57.5934 35.4334 57.5982 35.6335 57.592 35.8332C57.5665 36.6594 57.1071 37.1827 56.4045 37.1901C55.7001 37.1975 55.2076 36.674 55.1982 35.8566C55.1831 34.5574 55.194 33.2578 55.1938 31.9583C55.1938 31.7374 55.1938 31.5163 55.1938 31.1986C54.8811 31.1986 54.6163 31.1986 54.3516 31.1986C50.4026 31.1986 46.4534 31.1992 42.5044 31.1982C41.1628 31.1978 40.7975 30.8421 40.7973 29.5311C40.7961 23.4334 40.7961 17.336 40.7975 11.2383C40.7979 9.97471 41.1743 9.60739 42.4635 9.60699C46.4125 9.60558 50.3617 9.60659 54.3107 9.60659C54.5793 9.60659 54.8481 9.60659 55.1547 9.60659C55.1547 8.79984 55.1547 8.05979 55.1547 7.26326C48.8037 7.26326 42.4473 7.26326 35.9977 7.26326C35.9977 7.52463 35.9977 7.79001 35.9977 8.05518C35.9977 13.6031 35.9983 19.1507 35.9973 24.6986C35.9971 26.0341 35.6378 26.3982 34.3229 26.3998C32.8733 26.4016 31.4228 26.3736 29.9746 26.4212C29.6621 26.4315 29.2628 26.6326 29.0673 26.8769C28.1314 28.0468 27.2551 29.2643 26.3508 30.4598C25.766 31.2331 25.1153 31.4043 24.5034 30.9625C23.8689 30.5044 23.8481 29.8167 24.4571 28.9999C25.5024 27.5981 26.5737 26.2152 27.5932 24.7951C28.0184 24.2027 28.5273 23.9726 29.2441 23.9906C30.6635 24.0261 32.0846 24.001 33.5512 24.001C33.5512 18.3929 33.5512 12.8374 33.5512 7.24443C32.7874 7.24443 32.0471 7.24443 31.1985 7.24443C31.1985 8.25527 31.1657 9.27011 31.2083 10.2819C31.2466 11.1912 30.9958 11.8572 29.996 12.0563C29.996 12.887 30.0114 13.6858 29.9932 14.4839C29.9325 17.1331 27.7905 19.2176 25.1601 19.2004C22.5691 19.1834 20.4621 17.0976 20.4058 14.4807C20.3886 13.6826 20.4032 12.8838 20.4032 12.0567C19.4002 11.8564 19.152 11.1892 19.1915 10.2801C19.2345 9.28713 19.2013 8.29092 19.2013 7.25204C18.4063 7.25204 17.6663 7.25204 16.8636 7.25204C16.8636 12.7855 16.8636 18.341 16.8636 24.001C18.0799 24.001 19.3188 24.0008 20.5578 24.0012C20.9077 24.0014 21.2588 23.9848 21.6073 24.0084C22.3179 24.0567 22.799 24.5546 22.7942 25.2085C22.7894 25.8603 22.3049 26.3758 21.5905 26.3896C20.1913 26.4168 18.7913 26.3992 17.3917 26.4002C17.2215 26.4004 17.0514 26.4002 16.8433 26.4002C16.8433 28.4023 16.8433 30.3418 16.8433 32.3979C17.8656 32.3979 18.9033 32.3965 19.9409 32.3983C21.2233 32.4005 21.5989 32.7701 21.6003 34.0381C21.6025 36.1871 21.6049 38.3364 21.5993 40.4854C21.5965 41.5659 21.1787 41.9857 20.1084 41.9928C19.0378 41.9998 17.9671 41.9944 16.8495 41.9944C16.8495 44.0022 16.8495 45.9592 16.8495 47.9927C17.588 47.9927 18.3062 47.9833 19.024 47.9951C19.8568 48.0087 20.3787 48.4633 20.3948 49.1653C20.4114 49.892 19.869 50.3869 19.0006 50.3881C14.6266 50.3937 10.2524 50.4209 5.87877 50.3775C2.63897 50.3452 0.0222567 47.7151 0.0166488 44.4673C-0.00558279 31.6224 -0.0055829 18.7774 0.0168489 5.93257C0.0226572 2.68336 2.64238 0.0828676 5.87897 0.0183761C7.453 -0.0128682 9.02824 0.00295429 10.6027 0.0133691C11.5416 0.0195779 11.9979 0.458601 11.9989 1.38492C12.0059 8.05719 12.0051 14.7297 11.9997 21.4019C11.9991 22.2694 11.5022 22.8125 10.7759 22.7955C10.0545 22.7785 9.60626 22.2409 9.60566 21.3489C9.60165 15.3762 9.60346 9.4037 9.60346 3.43102C9.60346 3.13159 9.60346 2.83217 9.60346 2.33026C7.99718 2.42059 6.3907 2.34908 4.85412 2.6435C3.34137 2.93311 2.41185 4.45688 2.40824 6.10742C2.39943 10.1059 2.40524 14.1042 2.40504 18.1026C2.40504 24.95 2.40504 31.7973 2.40504 38.6444C2.40504 38.9098 2.40504 39.175 2.40504 39.6054C4.63801 37.8925 7.14356 38.5461 9.60346 38.361C9.60346 38.0742 9.60346 37.8084 9.60346 37.5426C9.60346 33.994 9.60306 30.4454 9.60426 26.8969C9.60426 26.6722 9.58223 26.4407 9.62709 26.2242C9.76028 25.5807 10.1675 25.2039 10.831 25.2155C11.4587 25.2264 11.8422 25.6007 11.977 26.2065C12.0197 26.3982 12.0023 26.6045 12.0023 26.8042C12.0035 30.9276 12.0043 35.0509 12.0025 39.1744C12.0019 40.4041 11.6163 40.7918 10.3976 40.7945C8.97296 40.7977 7.54814 40.787 6.12352 40.7973C4.00892 40.8125 2.40684 42.3695 2.40744 44.3938C2.40804 46.4178 4.00872 47.9795 6.12492 47.9893C8.84718 48.0019 11.5694 47.9923 14.4027 47.9923C14.4027 47.671 14.4027 47.383 14.4027 47.0952C14.4027 33.6006 14.4027 20.1059 14.4029 6.61133C14.4029 5.12803 14.7209 4.80877 16.1984 4.80857C30.4701 4.80837 44.7417 4.80837 59.0132 4.80837C59.3088 4.80837 59.6044 4.80837 59.9932 4.80837C59.9932 3.69279 59.9898 2.62748 59.9942 1.56237C59.9988 0.427357 60.4003 0.00055087 61.5145 0.0147711C63.386 0.0388052 65.2801 -0.0777603 67.1229 0.172595C69.9006 0.549931 71.9429 3.02144 71.9744 5.82982C72.0192 9.8277 71.9928 13.8266 71.9868 17.8249C71.9856 18.6542 71.5157 19.1802 70.8169 19.1968C70.0911 19.214 69.596 18.6707 69.5944 17.8036C69.5874 14.0052 69.5928 10.2066 69.5906 6.40825C69.589 3.85582 68.1455 2.41237 65.5977 2.40957C64.5544 2.40837 63.5112 2.40937 62.4308 2.40937C62.4308 14.4144 62.4308 26.35 62.4308 38.3544C64.808 38.5697 67.3476 37.8731 69.5912 39.6096C69.5912 39.1758 69.5912 38.9108 69.5912 38.6456C69.5912 33.5476 69.591 28.4497 69.5916 23.3517C69.5916 23.1268 69.5706 22.8974 69.6066 22.6781C69.7134 22.029 70.1035 21.6511 70.7657 21.6128C71.3859 21.577 71.8999 22.0496 71.9778 22.7032C72.0042 22.9253 71.9902 23.1524 71.9902 23.3773C71.9906 30.2246 71.9918 37.072 71.99 43.9191C71.989 47.8757 69.483 50.3909 65.5398 50.3913C51.8937 50.3927 38.2473 50.3919 24.6011 50.3915C24.3762 50.3915 24.1495 50.4047 23.9268 50.3809C23.2638 50.31 22.807 49.8167 22.807 49.1918C22.8068 48.5655 23.2618 48.0586 23.9262 48.0069C24.3922 47.9702 24.8635 47.9995 25.2006 47.9995ZM43.25 16.8364C43.25 20.8521 43.25 24.8064 43.25 28.7389C47.2589 28.7389 51.2139 28.7389 55.1535 28.7389C55.1535 24.7421 55.1535 20.8053 55.1535 16.8364C51.1761 16.8364 47.2389 16.8364 43.25 16.8364ZM27.6232 45.6173C27.6132 45.8358 27.6022 45.9826 27.6004 46.1294C27.581 47.658 27.9046 47.9917 29.4072 47.9921C31.1292 47.9925 32.8513 47.9923 34.5733 47.9923C37.3685 47.9923 40.1638 47.9965 42.959 47.9897C43.8805 47.9875 44.3494 47.5681 44.391 46.7307C44.4091 46.368 44.394 46.0034 44.394 45.6175C38.7654 45.6173 33.2324 45.6173 27.6232 45.6173ZM43.2594 12.0196C43.2594 12.8003 43.2594 13.5746 43.2594 14.3543C47.2417 14.3543 51.1953 14.3543 55.1351 14.3543C55.1351 13.5456 55.1351 12.7881 55.1351 12.0196C51.158 12.0196 47.2403 12.0196 43.2594 12.0196ZM22.8008 12.0324C22.8008 12.6082 22.8 13.1048 22.801 13.6013C22.8016 13.9257 22.7864 14.2514 22.8102 14.574C22.8977 15.7639 23.8737 16.7261 25.0504 16.7978C26.2597 16.8715 27.4165 16.0073 27.5507 14.7955C27.6505 13.8933 27.5704 12.971 27.5704 12.0322C25.9693 12.0324 24.4313 12.0324 22.8008 12.0324ZM28.7628 7.25685C26.3554 7.25685 24.0011 7.25685 21.6588 7.25685C21.6588 8.0646 21.6588 8.82167 21.6588 9.56973C24.0536 9.56973 26.3901 9.56973 28.7628 9.56973C28.7628 8.79543 28.7628 8.05639 28.7628 7.25685ZM19.148 39.5625C19.148 37.9444 19.148 36.3898 19.148 34.8582C18.3365 34.8582 17.5792 34.8582 16.8421 34.8582C16.8421 36.4567 16.8421 37.9937 16.8421 39.5625C17.6204 39.5625 18.3593 39.5625 19.148 39.5625Z" fill="#F8780F"/>
<path d="M62.3631 69.5841C62.3631 67.957 62.3631 66.4176 62.3631 64.832C61.581 64.832 60.8231 64.832 60.016 64.832C59.9213 65.8009 60.2974 67.075 58.7406 67.1643C57.934 67.2106 57.6911 66.6802 57.5529 64.838C56.7996 64.838 56.041 64.838 55.2298 64.838C55.1028 65.7919 55.5154 67.129 53.8877 67.1595C53.088 67.1743 52.8584 66.6365 52.7671 64.8456C52.015 64.8456 51.2566 64.8456 50.4274 64.8456C50.3 65.7695 50.7174 67.2065 49.1111 67.1374C47.6879 67.0762 48.0726 65.7657 47.9667 64.8266C47.1948 64.8266 46.4543 64.8266 45.5929 64.8266C45.5929 65.1995 45.6119 65.5878 45.5887 65.9734C45.5457 66.6874 45.0566 67.1729 44.4058 67.1791C43.7529 67.1851 43.2514 66.7034 43.2045 65.994C43.1801 65.6241 43.2001 65.2514 43.2001 64.8336C42.3918 64.8336 41.6333 64.8336 40.8212 64.8336C40.7218 65.7925 41.1056 67.0703 39.5513 67.1647C38.7352 67.2142 38.4816 66.6664 38.3623 64.8406C37.609 64.8406 36.8501 64.8406 36.0412 64.8406C35.8974 65.7579 36.3192 67.1593 34.7742 67.14C33.2871 67.1216 33.678 65.7739 33.5727 64.8222C32.7873 64.8222 32.0469 64.8222 31.2275 64.8222C31.1098 65.7663 31.5199 67.2009 29.9219 67.1374C28.5007 67.081 28.8634 65.7793 28.7829 64.829C27.9843 64.829 27.2259 64.829 26.4714 64.829C26.2086 66.7902 25.9621 67.221 25.1417 67.1791C24.3422 67.1382 24.1118 66.6916 23.9546 64.836C23.2009 64.836 22.4425 64.836 21.6265 64.836C21.5208 65.7829 21.9155 67.0663 20.3621 67.1651C19.5351 67.2176 19.2726 66.6562 19.1718 64.843C18.4186 64.843 17.6593 64.843 16.8463 64.843C16.6967 65.7487 17.1285 67.1559 15.5849 67.14C14.0996 67.1248 14.4675 65.7883 14.3846 64.8248C13.5965 64.8248 12.8563 64.8248 12.0313 64.8248C11.9097 65.7575 12.3307 67.1965 10.7324 67.1388C9.30221 67.0872 9.67835 65.7805 9.5738 64.8316C8.79369 64.8316 8.03501 64.8316 7.22727 64.8316C7.13233 65.8015 7.50847 67.0754 5.95166 67.1649C5.14511 67.2111 4.90197 66.6808 4.76397 64.8386C4.0107 64.8386 3.25202 64.8386 2.44868 64.8386C2.44868 66.3834 2.44868 67.9232 2.44868 69.5847C2.71406 69.5847 3.00067 69.5847 3.28707 69.5847C15.1834 69.5847 27.0796 69.5847 38.9759 69.5847C40.2233 69.5847 40.7759 69.9442 40.7903 70.7638C40.8051 71.5978 40.2203 71.9837 38.9405 71.9837C26.5693 71.9837 14.1982 71.9839 1.827 71.9837C0.308647 71.9837 0.00561683 71.6751 0.00541654 70.1307C0.00521626 68.0816 0.00321355 66.0327 0.00621781 63.9836C0.00802037 62.7927 0.397172 62.3885 1.55742 62.3885C22.126 62.3869 42.6946 62.3869 63.2632 62.3887C64.3826 62.3887 64.7882 62.8021 64.7904 63.9337C64.7948 66.1076 64.7952 68.2817 64.7902 70.4556C64.7876 71.5727 64.3738 71.9819 63.2438 71.9825C57.0706 71.9851 50.8977 71.9849 44.7245 71.9825C43.7661 71.9821 43.2206 71.5545 43.2021 70.8121C43.1831 70.0402 43.7445 69.5861 44.7421 69.5857C50.2904 69.5835 55.8387 69.5845 61.3869 69.5845C61.6854 69.5841 61.9836 69.5841 62.3631 69.5841Z" fill="#F8780F"/>
<path d="M52.7613 57.5891C52.7613 56.7481 52.7613 56.0083 52.7613 55.2294C45.1915 55.2294 37.6549 55.2294 30.0587 55.2294C30.0587 55.9718 30.0587 56.7299 30.0587 57.5887C30.3084 57.5887 30.5728 57.5887 30.8372 57.5887C35.2348 57.5887 39.6325 57.5801 44.0299 57.6035C44.4263 57.6055 44.928 57.7051 45.1867 57.9578C45.4383 58.2036 45.6107 58.7604 45.5066 59.0788C45.3904 59.4341 44.9522 59.7197 44.5971 59.9461C44.4162 60.0614 44.1102 59.9869 43.8607 59.9869C39.0132 59.9883 34.1659 59.9955 29.3186 59.9763C28.8333 59.9743 28.3256 59.8742 27.8676 59.7099C25.7313 58.944 23.6119 58.1317 21.4797 57.3542C20.8658 57.1305 20.3912 56.8092 20.4096 56.0918C20.429 55.3357 20.9483 55.0507 21.6047 54.8627C23.5705 54.2993 25.5186 53.6728 27.4916 53.1364C28.2497 52.9303 29.0558 52.8065 29.8404 52.8049C40.2097 52.7835 50.5792 52.7889 60.9485 52.7921C63.1494 52.7927 64.7655 54.2934 64.7894 56.3377C64.812 58.2775 63.2908 59.9505 61.3491 59.9709C57.3268 60.0136 53.3035 59.9917 49.2808 59.9807C48.5101 59.9787 48.0081 59.479 48.0019 58.798C47.9955 58.0904 48.5143 57.6039 49.3344 57.5927C50.4548 57.5777 51.5756 57.5891 52.7613 57.5891ZM57.5575 55.2398C56.7498 55.2398 55.9941 55.2398 55.2508 55.2398C55.2508 56.0471 55.2508 56.8032 55.2508 57.5517C56.0464 57.5517 56.7846 57.5517 57.5575 57.5517C57.5575 56.7776 57.5575 56.0393 57.5575 55.2398ZM60.0316 57.5679C60.8119 57.5519 61.6733 57.8573 62.1456 57.0363C62.3373 56.7031 62.3387 56.0774 62.1482 55.7435C61.6782 54.9185 60.8145 55.2282 60.0316 55.2095C60.0316 56.0101 60.0316 56.765 60.0316 57.5679ZM27.5749 55.5917C26.8679 55.8158 26.2617 56.0079 25.4505 56.2648C26.2949 56.5713 26.9098 56.7944 27.5749 57.0357C27.5749 56.5282 27.5749 56.1134 27.5749 55.5917Z" fill="#F8780F"/>
<path d="M40.7947 36.0188C40.7799 38.6686 38.6102 40.8088 35.9538 40.7936C33.3141 40.7786 31.1748 38.5921 31.1997 35.9343C31.2241 33.3226 33.3826 31.1942 36.0017 31.199C38.6553 31.2038 40.8095 33.3701 40.7947 36.0188ZM38.3927 36.0238C38.4073 34.7174 37.3466 33.6232 36.0436 33.6004C34.7039 33.577 33.6011 34.6635 33.6015 36.0062C33.6019 37.3034 34.6904 38.392 35.9877 38.3924C37.2989 38.3928 38.3781 37.3301 38.3927 36.0238Z" fill="#F8780F"/>
</svg>
