<svg width="72" height="72" viewBox="0 0 72 72" fill="none" xmlns="http://www.w3.org/2000/svg">
<path d="M72 9.10763C71.7017 9.3866 71.4493 9.78228 71.0958 9.9215C70.2169 10.268 69.4391 9.62074 69.421 8.54935C69.393 6.88857 69.4122 5.22709 69.4115 3.56578C69.4113 3.31353 69.4115 3.06129 69.4115 2.76175C47.1736 2.76175 25.0107 2.76175 2.78809 2.76175C2.78809 24.952 2.78809 47.1369 2.78809 69.3663C17.1851 69.3663 31.5564 69.3663 45.9675 69.3663C45.9675 68.4212 45.9675 67.5196 45.9675 66.5385C45.7167 66.5248 45.4709 66.5002 45.2252 66.4997C43.2369 66.4965 41.2487 66.5016 39.2602 66.4965C37.9528 66.493 37.495 66.0307 37.494 64.7115C37.4906 60.9445 37.4928 57.1775 37.4928 53.4105C37.4928 53.1582 37.4928 52.906 37.4928 52.6061C36.5291 52.6061 35.6321 52.6061 34.6472 52.6061C34.6472 52.9005 34.6472 53.1741 34.6472 53.4476C34.6472 57.1678 34.6481 60.8879 34.6467 64.6081C34.6462 66.0769 34.2304 66.4972 32.7725 66.4976C24.3281 66.4986 15.8836 66.4988 7.43926 66.4974C6.02844 66.4972 5.60692 66.0704 5.60674 64.6526C5.60604 57.3526 5.60586 50.0525 5.60692 42.7525C5.60709 41.3589 6.00541 40.9627 7.40516 40.9625C18.8438 40.9617 30.2824 40.962 41.721 40.962C42 40.962 42.2791 40.962 42.6201 40.962C42.6201 40.0128 42.6201 39.0938 42.6201 38.0818C42.3292 38.0818 42.0318 38.0818 41.7344 38.0818C33.3134 38.0818 24.8922 38.0822 16.4713 38.0801C16.1679 38.0801 15.8611 38.0801 15.5619 38.0375C14.9297 37.9475 14.4937 37.4687 14.4587 36.8651C14.4223 36.2377 14.8405 35.6787 15.483 35.5432C15.7312 35.4908 15.9944 35.4971 16.2508 35.4971C25.3268 35.495 34.4029 35.495 43.4788 35.4959C44.8511 35.4961 45.2915 35.9296 45.2957 37.2901C45.3003 38.7876 45.3013 40.2851 45.2953 41.7824C45.2901 43.1004 44.8489 43.5377 43.5173 43.5379C32.0787 43.5398 20.6401 43.539 9.20147 43.539C8.90106 43.539 8.60047 43.539 8.24135 43.539C8.24135 44.703 8.24135 45.8099 8.24135 47.0094C9.31239 47.0094 10.3803 47.0395 11.4457 47.002C12.8837 46.9514 14.1316 47.3093 15.0701 48.5596C16.5101 47.8395 18.0345 47.5456 19.617 47.7173C20.3534 47.7973 21.0908 47.9725 21.7964 48.201C22.5956 48.46 22.9296 49.1459 22.7106 49.8507C22.5088 50.5001 21.8514 50.8603 21.0688 50.6535C19.9751 50.3647 18.8905 50.1086 17.755 50.3733C17.6413 50.3999 17.5251 50.4161 17.412 50.4449C15.8455 50.8443 15.7143 51.0109 15.7143 52.597C15.7143 53.8136 15.6968 55.0308 15.73 56.2465C15.7363 56.4772 15.8834 56.7938 16.068 56.9156C17.8979 58.1248 20.8772 57.8411 22.4733 56.3376C23.6215 55.256 23.8702 54.04 23.2413 52.5833C23.1951 52.476 23.1471 52.3693 23.1065 52.26C22.8272 51.5077 23.0588 50.8318 23.6976 50.5298C24.3459 50.2232 24.9961 50.4584 25.4194 51.1522C26.6627 53.1902 26.367 55.957 24.7173 57.7235C22.452 60.1489 18.842 60.9329 15.7655 59.6674C15.5498 59.5787 15.3341 59.4901 15.0678 59.3805C14.0841 60.7455 12.6568 60.9925 11.0906 60.9218C10.1582 60.8798 9.22256 60.9141 8.23538 60.9141C8.23538 61.8986 8.23538 62.8429 8.23538 63.8324C16.148 63.8324 24.0413 63.8324 32.0311 63.8324C32.0311 63.5501 32.0311 63.279 32.0311 63.008C32.0311 59.2877 32.03 55.5677 32.0316 51.8474C32.0323 50.374 32.442 49.9627 33.9012 49.9617C35.3516 49.9606 36.8018 49.9604 38.2521 49.9617C39.668 49.9629 40.1064 50.3913 40.1075 51.7912C40.1103 55.5114 40.1086 59.2315 40.1086 62.9517C40.1086 63.2284 40.1086 63.5051 40.1086 63.8769C40.4109 63.8769 40.6589 63.8769 40.907 63.8769C42.8952 63.8769 44.8837 63.8723 46.8719 63.8786C48.1071 63.8827 48.5751 64.3469 48.5795 65.5645C48.5851 67.1555 48.5577 68.7471 48.5905 70.3373C48.6071 71.1377 48.3197 71.6912 47.5787 71.9999C32.0933 71.9999 16.6078 71.9999 1.12239 71.9999C0.357564 71.6603 0.13063 71.054 0.130982 70.2459C0.142232 47.4612 0.139947 24.6761 0.14065 1.89111C0.14065 0.562554 0.578872 0.123628 1.90567 0.123628C24.6852 0.122749 47.4648 0.12521 70.2443 0.114136C71.0522 0.113785 71.6611 0.33773 72 1.10572C72 3.77285 72 6.44015 72 9.10763ZM8.18475 49.6458C8.18475 52.4472 8.17965 55.1992 8.20075 57.9513C8.2018 58.0791 8.43489 58.3125 8.56356 58.315C9.75483 58.3387 10.9479 58.3471 12.1386 58.3071C12.7301 58.2872 13.0948 57.9159 13.0978 57.3079C13.1091 55.0637 13.107 52.8195 13.0913 50.5753C13.0878 50.0763 12.8127 49.6753 12.3023 49.6597C10.9568 49.6184 9.60928 49.6458 8.18475 49.6458Z" fill="#F8780F"/>
<path d="M57.4035 72.0001C56.6494 71.6462 56.413 71.028 56.4263 70.2299C56.4518 68.7096 56.4311 67.1886 56.4344 65.6677C56.4372 64.3529 56.8988 63.8823 58.197 63.8783C59.8344 63.8732 61.4716 63.877 63.109 63.877C63.3619 63.877 63.6147 63.877 63.9125 63.877C63.9125 57.088 63.9125 50.3637 63.9125 43.5388C63.0946 43.5388 62.3083 43.539 61.522 43.5388C60.5396 43.5384 59.5568 43.5537 58.5749 43.5326C57.5918 43.5114 57.127 43.0347 57.1193 42.0417C57.1064 40.3807 57.1084 38.7194 57.1182 37.0583C57.1247 35.9633 57.6027 35.5021 58.7264 35.4973C60.4326 35.4901 62.1387 35.4954 63.9011 35.4954C63.9011 34.2818 63.9011 33.1072 63.9011 31.8629C62.8903 31.8629 61.9135 31.8659 60.9367 31.8622C59.679 31.8574 59.2278 31.4211 59.2272 30.1884C59.2242 24.5031 59.2242 18.8178 59.2272 13.1325C59.2279 11.9256 59.6726 11.4833 60.8776 11.4758C61.8588 11.4696 62.8401 11.4745 63.8893 11.4745C63.8893 10.3608 63.8893 9.2822 63.8893 8.16353C55.9892 8.16353 48.0953 8.16353 40.1087 8.16353C40.1087 8.44988 40.1087 8.72093 40.1087 8.99216C40.1087 14.7476 40.1091 20.5032 40.1084 26.2586C40.1082 27.8289 39.731 28.2066 38.1686 28.2072C36.7418 28.2077 35.315 28.2082 33.8882 28.207C32.4327 28.2059 32.0321 27.7995 32.0318 26.3161C32.0305 20.5607 32.0312 14.8051 32.0312 9.04964C32.0312 8.77208 32.0312 8.49452 32.0312 8.17109C28.697 8.17109 25.411 8.17109 22.0251 8.17109C22.0251 8.43511 22.0251 8.70511 22.0251 8.97529C22.0249 14.0054 22.0419 19.0358 22.0193 24.0659C22.0008 28.1585 19.3915 31.4763 15.4514 32.3057C14.2555 32.5574 12.9892 32.496 11.7538 32.5321C10.5912 32.566 9.42664 32.5393 8.22342 32.5393C8.22342 33.5375 8.22342 34.463 8.22342 35.4551C8.45703 35.4689 8.68028 35.4921 8.90369 35.4935C9.79244 35.4994 10.6822 35.4731 11.5698 35.5082C12.343 35.5388 12.8807 36.1062 12.8735 36.8018C12.8665 37.4742 12.3625 38.0354 11.6144 38.0525C10.0254 38.0887 8.43401 38.0894 6.84512 38.0488C6.0926 38.0296 5.67108 37.535 5.61342 36.7791C5.59918 36.593 5.60674 36.4051 5.60674 36.2179C5.60657 26.6253 5.60639 17.0329 5.60674 7.44036C5.60674 5.9014 5.9678 5.53648 7.50395 5.5363C15.9246 5.53507 24.3452 5.53507 32.7658 5.53648C34.2427 5.53665 34.6465 5.93919 34.6469 7.4031C34.6479 13.1585 34.6474 18.9141 34.6474 24.6696C34.6474 24.9485 34.6474 25.2275 34.6474 25.5652C35.5868 25.5652 36.4825 25.5652 37.4929 25.5652C37.4929 25.3025 37.4929 25.0341 37.4929 24.7659C37.4929 18.9871 37.4924 13.2081 37.4933 7.42929C37.4935 5.93831 37.8833 5.53701 39.3481 5.53683C47.7921 5.53507 56.2361 5.53507 64.6803 5.53683C66.1588 5.53718 66.5334 5.92074 66.5336 7.41558C66.5339 17.0081 66.5339 26.6005 66.5336 36.1931C66.5336 37.7185 66.1676 38.0801 64.6202 38.0815C63.0116 38.0831 61.403 38.0818 59.7437 38.0818C59.7437 39.0551 59.7437 39.9536 59.7437 40.9295C59.9935 40.9404 60.2397 40.9601 60.4862 40.9606C62.0065 40.9638 63.527 40.952 65.0473 40.9666C66.031 40.9761 66.5278 41.4588 66.5288 42.4359C66.5366 49.9462 66.5362 57.4563 66.5299 64.9665C66.529 65.9929 66.0189 66.483 64.9471 66.4934C63.2632 66.5095 61.579 66.4979 59.8948 66.4981C59.6428 66.4981 59.3907 66.4981 59.0929 66.4981C59.0929 67.4846 59.0929 68.406 59.0929 69.3665C62.5233 69.3665 65.9248 69.3665 69.4118 69.3665C69.4118 69.0025 69.4118 68.6818 69.4118 68.3614C69.4118 50.3229 69.4118 32.2842 69.4122 14.2457C69.4122 13.965 69.41 13.6841 69.422 13.4037C69.45 12.7509 69.7476 12.2745 70.3972 12.1103C71.0499 11.9455 71.5317 12.2281 71.8601 12.7971C71.9065 12.8776 71.9534 12.958 72.0002 13.0383C72.0002 32.6922 72.0002 52.3461 72.0002 72.0001C67.1253 72.0001 62.2644 72.0001 57.4035 72.0001ZM11.7846 8.15597C11.6538 9.68755 11.3453 10.2265 10.5247 10.2244C9.11322 10.2209 9.15102 9.11275 9.0974 8.15281C8.77151 8.15281 8.51891 8.15281 8.24522 8.15281C8.24522 15.4113 8.24522 22.6425 8.24522 29.9263C9.84834 29.9263 11.3896 29.943 12.9303 29.9187C13.628 29.9078 14.348 29.9103 15.0174 29.7438C17.7873 29.0551 19.4047 26.8679 19.4122 23.8471C19.4246 18.841 19.4163 13.8349 19.414 8.82886C19.4138 8.60527 19.3889 8.38167 19.3755 8.15843C19.0544 8.15843 18.8051 8.15843 18.5609 8.15843C18.3217 9.7707 18.0016 10.2689 17.1744 10.2249C16.8914 10.2098 16.4785 10.1078 16.366 9.90904C16.0708 9.38802 15.9086 8.79177 15.6595 8.13646C15.5792 8.14033 15.3633 8.15087 15.1149 8.163C15.1149 9.26427 15.1336 10.2926 15.1095 11.32C15.0866 12.2932 14.5317 12.8833 13.7412 12.8354C12.9948 12.7903 12.5229 12.232 12.5081 11.3235C12.4912 10.2773 12.5042 9.23052 12.5042 8.15597C12.2302 8.15597 12.0298 8.15597 11.7846 8.15597ZM63.9111 29.2448C63.9111 24.1419 63.9111 19.131 63.9111 14.0946C63.2052 14.0946 62.5463 14.0946 61.8738 14.0946C61.8738 19.1739 61.8738 24.203 61.8738 29.2448C62.5753 29.2448 63.219 29.2448 63.9111 29.2448Z" fill="#F8780F"/>
<path d="M55.6409 21.7429C55.6409 24.5032 55.643 27.2637 55.6401 30.024C55.6385 31.4668 55.2445 31.8619 53.8183 31.8626C50.9416 31.864 48.0651 31.8654 45.1885 31.8619C43.9285 31.8603 43.4913 31.4314 43.4906 30.1855C43.4874 24.5011 43.4873 18.8167 43.4906 13.1323C43.4913 11.915 43.9241 11.4787 45.1322 11.4764C48.0556 11.471 50.979 11.4725 53.9023 11.4754C55.2336 11.4768 55.6374 11.8872 55.6395 13.2514C55.6441 16.0817 55.6409 18.9123 55.6409 21.7429ZM52.9972 29.24C52.9972 28.6636 52.9972 28.1628 52.9972 27.672C52.8963 27.6555 52.8508 27.6416 52.8051 27.6414C51.7759 27.6388 50.7467 27.6398 49.7175 27.6358C48.4293 27.6307 47.9948 27.1963 47.9936 25.9021C47.9908 23.1179 47.992 20.3335 47.9929 17.5493C47.9934 16.0947 48.3775 15.7054 49.8105 15.7036C50.8774 15.7024 51.9444 15.7034 53.0072 15.7034C53.0072 15.1077 53.0072 14.6057 53.0072 14.0926C50.6834 14.0926 48.4051 14.0926 46.0973 14.0926C46.0973 19.1584 46.0973 24.1762 46.0973 29.2402C48.414 29.24 50.6927 29.24 52.9972 29.24ZM50.6108 18.321C50.6108 20.5822 50.6108 22.7626 50.6108 24.9875C51.4299 24.9875 52.2072 24.9875 53.0076 24.9875C53.0076 22.7496 53.0076 20.5511 53.0076 18.321C52.2025 18.321 51.4426 18.321 50.6108 18.321Z" fill="#F8780F"/>
<path d="M19.7847 53.9761C19.7765 54.6689 19.1581 55.2695 18.472 55.2514C17.7627 55.2326 17.2136 54.6384 17.2366 53.9148C17.2584 53.2243 17.8154 52.6783 18.4985 52.6776C19.1934 52.6766 19.7932 53.2821 19.7847 53.9761Z" fill="#F8780F"/>
<path d="M15.0852 25.2404C15.0731 25.9407 14.461 26.5306 13.772 26.5063C13.0811 26.4819 12.4873 25.8459 12.5221 25.1676C12.5571 24.4878 13.1261 23.95 13.8105 23.95C14.5282 23.9501 15.0975 24.5263 15.0852 25.2404Z" fill="#F8780F"/>
</svg>
